<?xml version="1.0" standalone="no"?>
<!DOCTYPE svg PUBLIC "-//W3C//DTD SVG 20010904//EN"
 "http://www.w3.org/TR/2001/REC-SVG-20010904/DTD/svg10.dtd">
<svg version="1.0" xmlns="http://www.w3.org/2000/svg"
 width="700.000000pt" height="700.000000pt" viewBox="0 0 700.000000 700.000000"
 preserveAspectRatio="xMidYMid meet">
<metadata>
Created by potrace 1.11, written by Peter Selinger 2001-2013
</metadata>
<g transform="translate(0.000000,700.000000) scale(0.100000,-0.100000)"
fill="#000000" stroke="none">
<path d="M1483 6528 l2 -472 155 0 155 1 3 156 3 157 143 0 143 0 -1 -155 c-1
-97 3 -155 9 -156 6 -1 75 -2 155 -2 l145 -2 5 330 c3 182 4 394 2 473 l-3
143 -157 -3 -157 -3 1 -153 1 -153 -146 3 -145 3 0 153 0 152 -157 0 -157 0 1
-472z"/>
<path d="M2539 6988 c-2 -48 2 -292 5 -297 3 -4 63 -6 135 -5 86 1 131 -3 134
-10 2 -6 4 -141 3 -299 -1 -159 2 -296 5 -305 6 -15 24 -17 155 -17 l149 1 3
315 2 316 138 -1 137 0 3 157 3 157 -436 0 c-341 0 -435 -3 -436 -12z"/>
<path d="M3549 6655 c-1 -434 -1 -549 0 -577 1 -23 2 -23 154 -23 l152 1 1
221 c0 123 2 225 6 228 4 5 31 -34 171 -253 32 -49 43 -60 52 -50 7 7 50 72
96 143 131 204 117 211 115 -55 0 -146 3 -231 9 -233 8 -2 252 -1 293 2 9 1
12 102 12 471 l0 470 -166 -2 -166 -3 -98 -163 -99 -162 -19 27 c-10 16 -56
90 -102 166 l-83 137 -163 0 -164 0 -1 -345z"/>
<path d="M4769 6963 c-1 -47 0 -825 0 -873 l1 -35 367 1 c203 1 373 2 380 3 8
1 11 46 11 156 l0 155 -223 0 -223 0 0 293 c-1 160 -1 302 -1 315 -1 22 -2 22
-156 22 l-155 0 -1 -37z"/>
<path d="M1028 5619 c-5 -4 -7 -25 -4 -50 4 -24 8 -71 11 -104 8 -106 14 -179
20 -230 2 -27 7 -81 10 -120 3 -38 7 -88 10 -110 2 -22 7 -69 10 -105 12 -140
16 -186 20 -220 2 -19 7 -69 10 -110 3 -41 7 -93 9 -115 2 -22 7 -74 10 -115
4 -41 9 -95 11 -120 3 -25 7 -74 10 -110 3 -36 7 -85 10 -110 2 -25 7 -74 10
-110 3 -36 10 -114 15 -175 5 -60 12 -139 15 -175 3 -36 7 -81 10 -100 4 -36
13 -136 20 -225 5 -58 14 -162 20 -220 2 -22 6 -74 9 -115 4 -41 8 -95 11
-120 2 -25 7 -76 10 -115 3 -38 8 -86 10 -105 2 -19 7 -75 11 -125 3 -49 8
-98 10 -107 1 -10 6 -60 9 -110 3 -51 8 -100 10 -108 2 -8 6 -55 10 -105 3
-49 8 -106 10 -125 5 -53 14 -148 20 -220 3 -36 7 -85 10 -110 3 -25 7 -74 10
-110 3 -36 7 -85 9 -110 6 -59 15 -160 22 -240 6 -80 10 -126 19 -210 8 -86
14 -148 21 -229 3 -36 7 -67 9 -69 3 -3 202 -61 230 -66 11 -2 94 -25 185 -51
91 -25 208 -57 260 -71 52 -14 102 -28 110 -31 8 -3 20 -7 25 -8 6 -2 102 -28
215 -60 113 -31 239 -65 280 -76 41 -11 219 -61 395 -110 l320 -89 125 35 c69
19 208 57 310 85 102 28 273 76 380 106 107 29 326 90 485 134 160 44 362 100
450 125 88 24 188 52 223 61 58 16 62 19 63 48 1 17 3 40 4 51 1 11 5 54 9 95
4 41 9 95 11 120 3 25 7 74 10 110 6 68 11 127 20 220 3 30 7 84 10 120 10
111 17 194 30 330 3 25 7 79 10 120 3 41 8 86 10 100 2 14 6 68 10 120 3 52 8
106 10 120 2 14 7 59 10 100 3 41 8 93 10 115 2 22 7 76 10 120 4 44 8 94 10
110 2 17 7 64 10 105 4 41 8 93 10 115 7 74 23 259 30 340 2 28 6 75 9 105 3
30 8 81 11 113 5 54 7 83 20 232 3 33 7 78 9 100 2 22 7 74 11 115 4 41 8 91
10 110 2 19 6 67 9 105 13 152 17 201 21 235 2 19 7 69 10 110 3 41 8 91 10
110 2 19 7 73 10 120 4 47 8 101 10 120 2 19 7 71 10 115 4 44 8 91 10 105 2
14 7 61 10 105 4 44 8 96 10 115 2 19 6 71 10 115 4 44 8 94 11 110 4 34 16
193 18 245 l1 35 -2468 0 c-1358 0 -2473 -3 -2479 -6z"/>
</g>
</svg>
